<svg width="73" height="78" viewBox="0 0 73 78" fill="none" xmlns="http://www.w3.org/2000/svg">
<path d="M36.2899 11.9863C56.2651 11.9863 72.4623 22.4178 72.4623 35.2537C72.4623 41.7686 68.2823 47.663 61.5704 51.8899C65.8709 48.5161 68.4431 44.2505 68.4431 39.6357C68.4431 28.6225 54.0545 19.7421 36.2899 19.7421V31.3758L20.2132 15.8642L36.2899 0.352539V11.9863ZM36.2899 66.277C16.3146 66.277 0.117447 55.8454 0.117447 43.0095C0.117447 36.4946 4.29737 30.6002 11.0094 26.3733C6.70886 29.7471 4.1366 34.0128 4.1366 38.6663C4.1366 49.6407 18.5252 58.5211 36.2899 58.5211V46.8874L52.3665 62.3991L36.2899 77.9107V66.277Z" fill="#45C160"/>
</svg>
