<svg width="60" height="60" viewBox="0 0 60 60" fill="none" xmlns="http://www.w3.org/2000/svg">
<rect width="60" height="60" rx="10" fill="#5DD86F"/>
<path d="M15.9375 20.25V28.2469C15.9375 34.2 15.9375 37.1775 17.7694 39.0262C19.5994 40.875 22.545 40.875 28.4381 40.875H31.5637C37.455 40.875 40.4006 40.875 42.2325 39.0262C44.0625 37.1756 44.0625 34.2 44.0625 28.2469V20.25M15.9375 20.25H44.0625M15.9375 20.25L17.2894 17.3662C18.3394 15.1275 18.8644 14.01 19.9256 13.38C20.9887 12.75 22.35 12.75 25.0781 12.75H34.9219C37.6481 12.75 39.0112 12.75 40.0744 13.38C41.1375 14.01 41.6625 15.1275 42.7106 17.3662L44.0625 20.25M27.1875 25.875H32.8125M30 45.5625V50.25M30 45.5625H20.625M30 45.5625H39.375M20.625 45.5625H15.9375C14.6943 45.5625 13.502 46.0564 12.6229 46.9354C11.7439 47.8145 11.25 49.0068 11.25 50.25M20.625 45.5625V50.25M39.375 45.5625H44.0625C45.3057 45.5625 46.498 46.0564 47.3771 46.9354C48.2561 47.8145 48.75 49.0068 48.75 50.25M39.375 45.5625V50.25" stroke="white" stroke-width="3.75" stroke-linecap="round" stroke-linejoin="round"/>
</svg>
