<svg width="80" height="80" viewBox="0 0 80 80" fill="none" xmlns="http://www.w3.org/2000/svg">
<rect width="80" height="80" rx="10" fill="#5DD86F"/>
<path d="M21.25 27V37.6625C21.25 45.6 21.25 49.57 23.6925 52.035C26.1325 54.5 30.06 54.5 37.9175 54.5H42.085C49.94 54.5 53.8675 54.5 56.31 52.035C58.75 49.5675 58.75 45.6 58.75 37.6625V27M21.25 27H58.75M21.25 27L23.0525 23.155C24.4525 20.17 25.1525 18.68 26.5675 17.84C27.985 17 29.8 17 33.4375 17H46.5625C50.1975 17 52.015 17 53.4325 17.84C54.85 18.68 55.55 20.17 56.9475 23.155L58.75 27M36.25 34.5H43.75M40 60.75V67M40 60.75H27.5M40 60.75H52.5M27.5 60.75H21.25C19.5924 60.75 18.0027 61.4085 16.8306 62.5806C15.6585 63.7527 15 65.3424 15 67M27.5 60.75V67M52.5 60.75H58.75C60.4076 60.75 61.9973 61.4085 63.1694 62.5806C64.3415 63.7527 65 65.3424 65 67M52.5 60.75V67" stroke="white" stroke-width="3.75" stroke-linecap="round" stroke-linejoin="round"/>
</svg>
