<svg width="635" height="142" viewBox="0 0 635 142" fill="none" xmlns="http://www.w3.org/2000/svg">
<path d="M183.295 19.25V24.5H215.264V19.25H228.576V48.2188H170.076V19.25H183.295ZM183.295 38.2812H215.264V34.0625H183.295V38.2812ZM238.608 51.875V62.75H205.983V67.0625H229.233V89.75H182.358V93.4062H231.295V103.531H169.045V80.5625H215.826V76.9062H169.045V67.0625H192.389V62.75H160.139V51.875H238.608ZM322.889 28.9062V40.0625H311.639V47.0938H322.889V58.1562H311.639V69.875H298.139V18.0312H311.639V28.9062H322.889ZM285.67 23.0938V49.4375H259.514V55.625C273.248 55.4844 282.436 55.0156 292.608 53.1875L294.014 63.7812C282.295 66.125 271.326 66.5938 253.42 66.5938H246.014V39.5H272.451V33.5938H245.92V23.0938H285.67ZM283.045 70.8125C301.045 70.8125 312.483 77.1875 312.483 87.5938C312.483 97.9062 301.045 103.906 283.045 103.906C264.67 103.906 253.233 97.9062 253.233 87.5938C253.233 77.1875 264.67 70.8125 283.045 70.8125ZM283.045 81.2188C272.076 81.2188 266.545 83.2812 266.639 87.5938C266.545 91.9062 272.076 93.875 283.045 93.875C293.826 93.875 299.17 91.9062 299.17 87.5938C299.17 83.2812 293.826 81.2188 283.045 81.2188Z" fill="black"/>
<path d="M121.376 89.3434L121.306 90.2021L122.012 90.6959L131.662 97.4435C131.818 97.5666 131.868 97.6831 131.882 97.7496C131.895 97.8062 131.899 97.9029 131.806 98.0523C131.805 98.0543 131.804 98.0563 131.803 98.0582L122.673 112.138C122.671 112.14 122.669 112.143 122.668 112.145C122.497 112.392 122.122 112.588 121.58 112.426L110.235 108.355L109.508 108.094L108.874 108.534C106.63 110.091 104.124 111.379 101.477 112.391L100.672 112.698L100.533 113.549L98.7674 124.341L98.7636 124.364L98.7606 124.387C98.7538 124.439 98.7169 124.541 98.5793 124.649C98.4412 124.757 98.2432 124.833 98.0246 124.833H79.7165C79.208 124.833 78.9586 124.539 78.9036 124.311L77.2097 113.558L77.0734 112.693L76.2528 112.386C73.5575 111.38 71.1184 110.096 68.8676 108.534L68.2343 108.095L67.5083 108.354L56.0657 112.437C55.6423 112.588 55.2068 112.365 55.1111 112.205L55.0971 112.182L55.0822 112.159L45.9346 98.0521C45.8423 97.9028 45.8466 97.8061 45.8587 97.7496C45.8729 97.6831 45.9234 97.5666 46.0797 97.4434L55.7294 90.6959L56.4355 90.2021L56.3648 89.3434L56.0479 85.499L56.3649 81.5964L56.4349 80.7347L55.7244 80.2422L46.0784 73.5554C45.9383 73.4436 45.8781 73.3208 45.8597 73.2331C45.8426 73.1521 45.8521 73.0712 45.9143 72.9787L45.9213 72.9683L45.9282 72.9577L55.0822 58.841L55.1085 58.8005L55.1322 58.7583C55.1802 58.6726 55.2872 58.5684 55.4846 58.5049C55.6861 58.4401 55.9015 58.4463 56.0636 58.5036C56.0643 58.5038 56.065 58.5041 56.0657 58.5043L67.5019 62.6437L68.2307 62.9075L68.8676 62.4656C71.1346 60.8926 73.5657 59.5615 76.2269 58.6228L77.0713 58.325L77.2099 57.4404L78.9013 46.6454C78.9515 46.4728 79.1954 46.1666 79.7165 46.1666H98.0246C98.244 46.1666 98.4482 46.2434 98.5928 46.354C98.7416 46.4677 98.7615 46.5609 98.7622 46.5664L98.7645 46.5828L98.7672 46.5992L100.533 57.4492L100.674 58.3196L101.504 58.6191C104.115 59.5619 106.615 60.8983 108.874 62.4656L109.512 62.9085L110.242 62.6428L121.583 58.5142C122.117 58.3557 122.473 58.5465 122.649 58.8249L122.654 58.833L122.659 58.841L131.813 72.9577L131.82 72.9683L131.827 72.9787C131.889 73.0712 131.898 73.1521 131.881 73.2331C131.863 73.3209 131.803 73.4436 131.663 73.5554L122.017 80.2422L121.306 80.7347L121.376 81.5964L121.693 85.499L121.376 89.3434ZM48.9933 32.5356L48.9272 33.4014L49.645 33.89L55.6721 37.992L49.8917 46.9306C49.8896 46.9304 49.8877 46.9302 49.8861 46.9299C49.8833 46.9294 49.8819 46.929 49.8816 46.9289C49.8815 46.9288 49.8815 46.9288 49.8815 46.9288L42.5603 44.3046L41.9366 44.081L41.3513 44.3915L36.5127 46.9581L35.8677 47.3003L35.7391 48.019L34.5195 54.8333H22.7653C22.7472 54.8333 22.7318 54.8323 22.719 54.8308L21.6985 48.0597L21.5843 47.3021L20.9036 46.9505L15.9343 44.3839L15.3587 44.0866L14.7477 44.3018L7.33178 46.9133L1.60116 38.0517L7.60171 33.8817L8.30678 33.3917L8.24136 32.5356L8.05393 30.0833L8.24136 27.6309L8.30678 26.7748L7.60171 26.2848L1.60116 22.1149L7.33171 13.2533L14.6784 15.8634L15.2867 16.0795L15.8618 15.7863L20.8965 13.2196L21.5836 12.8694L21.6985 12.1068L22.719 5.33572C22.7318 5.33424 22.7472 5.33325 22.7653 5.33325H34.5195L35.7391 12.1475L35.8677 12.8662L36.5127 13.2084L41.3513 15.775L41.9366 16.0855L42.5603 15.8619L49.8815 13.2377C49.8815 13.2377 49.8815 13.2377 49.8816 13.2376C49.8819 13.2376 49.8834 13.2371 49.8861 13.2366C49.8877 13.2363 49.8896 13.2361 49.8917 13.2359L55.6721 22.1745L49.645 26.2765L48.9272 26.7651L48.9933 27.6309L49.1808 30.0833L48.9933 32.5356ZM88.8706 101.292C98.3605 101.292 106.39 94.3597 106.39 85.4999C106.39 76.6401 98.3605 69.7083 88.8706 69.7083C79.311 69.7083 71.351 76.6438 71.351 85.4999C71.351 94.356 79.311 101.292 88.8706 101.292ZM133.071 72.1417L133.071 72.1418L133.071 72.1417ZM28.65 40.7416C35.0015 40.7416 40.4156 36.1431 40.4156 30.0833C40.4156 24.0351 35.0145 19.3666 28.65 19.3666C25.564 19.3666 22.5748 20.4587 20.3463 22.4468C18.1123 24.4398 16.819 27.1822 16.819 30.0833C16.819 36.1546 22.3116 40.7416 28.65 40.7416Z" fill="#6EB2EA" stroke="#342EAA" stroke-width="3"/>
<path fill-rule="evenodd" clip-rule="evenodd" d="M573.417 21.4705L553 56.8332L573.417 92.1959H614.25L634.667 56.8332L614.25 21.4705H573.417ZM587.028 43.2215L578.861 57.3665L587.028 71.5116H603.361L611.528 57.3665L603.361 43.2215H587.028Z" fill="white"/>
<path fill-rule="evenodd" clip-rule="evenodd" d="M427 22.9883L412 46.5717L427 70.155H457L472 46.5717L457 22.9883H427ZM437 37.494L431 46.9274L437 56.3607H449L455 46.9274L449 37.494H437Z" fill="white"/>
<path d="M349.136 93V86.8636L386.773 30.6818H348.727V23.1818H396.864V29.3182L359.227 85.5H397.273V93H349.136ZM492.455 93V23.1818H516.045C521.5 23.1818 525.977 24.1136 529.477 25.9773C532.977 27.8182 535.568 30.3523 537.25 33.5795C538.932 36.8068 539.773 40.4773 539.773 44.5909C539.773 48.7045 538.932 52.3523 537.25 55.5341C535.568 58.7159 532.989 61.2159 529.511 63.0341C526.034 64.8295 521.591 65.7273 516.182 65.7273H497.091V58.0909H515.909C519.636 58.0909 522.636 57.5455 524.909 56.4545C527.205 55.3636 528.864 53.8182 529.886 51.8182C530.932 49.7955 531.455 47.3864 531.455 44.5909C531.455 41.7955 530.932 39.3523 529.886 37.2614C528.841 35.1705 527.17 33.5568 524.875 32.4205C522.58 31.2614 519.545 30.6818 515.773 30.6818H500.909V93H492.455ZM525.318 61.6364L542.5 93H532.682L515.773 61.6364H525.318Z" fill="black"/>
<path d="M412 85H472V93H420.276L416.138 91.6667L412 87.7692V85Z" fill="white"/>
<path d="M412 46L426.5 68.5V88.5238L412 86V46Z" fill="white"/>
</svg>
