<svg width="230" height="64" viewBox="0 0 230 64" fill="none" xmlns="http://www.w3.org/2000/svg">
<path d="M92.5273 14.5938V16.5625H104.516V14.5938H109.508V25.457H87.5703V14.5938H92.5273ZM92.5273 21.7305H104.516V20.1484H92.5273V21.7305ZM113.27 26.8281V30.9062H101.035V32.5234H109.754V41.0312H92.1758V42.4023H110.527V46.1992H87.1836V37.5859H104.727V36.2148H87.1836V32.5234H95.9375V30.9062H83.8438V26.8281H113.27ZM144.875 18.2148V22.3984H140.656V25.0352H144.875V29.1836H140.656V33.5781H135.594V14.1367H140.656V18.2148H144.875ZM130.918 16.0352V25.9141H121.109V28.2344C126.26 28.1816 129.705 28.0059 133.52 27.3203L134.047 31.293C129.652 32.1719 125.539 32.3477 118.824 32.3477H116.047V22.1875H125.961V19.9727H116.012V16.0352H130.918ZM129.934 33.9297C136.684 33.9297 140.973 36.3203 140.973 40.2227C140.973 44.0898 136.684 46.3398 129.934 46.3398C123.043 46.3398 118.754 44.0898 118.754 40.2227C118.754 36.3203 123.043 33.9297 129.934 33.9297ZM129.934 37.832C125.82 37.832 123.746 38.6055 123.781 40.2227C123.746 41.8398 125.82 42.5781 129.934 42.5781C133.977 42.5781 135.98 41.8398 135.98 40.2227C135.98 38.6055 133.977 37.832 129.934 37.832Z" fill="black"/>
<path fill-rule="evenodd" clip-rule="evenodd" d="M207.5 20.0095L200 32.9999L207.5 45.9903H222.5L230 32.9999L222.5 20.0095H207.5ZM212.5 27.9997L209.5 33.1958L212.5 38.392H218.5L221.5 33.1958L218.5 27.9997H212.5Z" fill="#699DFF"/>
<path fill-rule="evenodd" clip-rule="evenodd" d="M173 26.001L169 32.501L173 39.001H181L185 32.501L181 26.001H173ZM175.667 29.999L174.067 32.599L175.667 35.199H178.867L180.467 32.599L178.867 29.999H175.667Z" fill="#699DFF"/>
<path d="M151.045 45V42.9545L163.591 24.2273H150.909V21.7273H166.955V23.7727L154.409 42.5H167.091V45H151.045ZM189.455 45V27.5455H192.045V30.1818H192.227C192.545 29.3182 193.121 28.6174 193.955 28.0795C194.788 27.5417 195.727 27.2727 196.773 27.2727C196.97 27.2727 197.216 27.2765 197.511 27.2841C197.807 27.2917 198.03 27.303 198.182 27.3182V30.0455C198.091 30.0227 197.883 29.9886 197.557 29.9432C197.239 29.8902 196.902 29.8636 196.545 29.8636C195.697 29.8636 194.939 30.0417 194.273 30.3977C193.614 30.7462 193.091 31.2311 192.705 31.8523C192.326 32.4659 192.136 33.1667 192.136 33.9545V45H189.455Z" fill="black"/>
<path d="M169 42H183.5L183 45H171L170 44.5L169 42Z" fill="#699DFF"/>
<path d="M169 32.5L174 37.5V43L169 42V32.5Z" fill="#699DFF"/>
<path d="M32.6463 35.25C35.8889 35.25 38.5311 32.8929 38.5311 30C38.5311 27.1071 35.8889 24.75 32.6463 24.75C29.3797 24.75 26.7616 27.1071 26.7616 30C26.7616 32.8929 29.3797 35.25 32.6463 35.25ZM45.1364 31.4571L48.6913 33.9429C49.0035 34.1786 49.0996 34.5643 48.8834 34.9071L45.5207 40.0929C45.3045 40.4143 44.8962 40.5429 44.4879 40.4143L40.3085 38.9143C39.4438 39.5143 38.483 40.0071 37.4742 40.3929L36.8257 44.3571C36.7777 44.7214 36.4174 45 36.009 45H29.2836C28.8513 45 28.515 44.7214 28.4429 44.3571L27.8184 40.3929C26.7856 40.0071 25.8489 39.5143 24.9842 38.9143L20.7808 40.4143C20.4205 40.5429 19.9641 40.4143 19.772 40.0929L16.4092 34.9071C16.1931 34.5643 16.2892 34.1786 16.6014 33.9429L20.1563 31.4571L20.0362 30L20.1563 28.5214L16.6014 26.0571C16.2892 25.8214 16.1931 25.4143 16.4092 25.0929L19.772 19.9071C19.9641 19.5643 20.4205 19.4357 20.7808 19.5643L24.9842 21.0857C25.8489 20.4857 26.7856 19.9714 27.8184 19.6071L28.4429 15.6214C28.515 15.2786 28.8513 15 29.2836 15H36.009C36.4174 15 36.7777 15.2786 36.8257 15.6214L37.4742 19.6071C38.483 19.9714 39.4438 20.4857 40.3085 21.0857L44.4879 19.5643C44.8962 19.4357 45.3045 19.5643 45.5207 19.9071L48.8834 25.0929C49.0996 25.4143 49.0035 25.8214 48.6913 26.0571L45.1364 28.5214L45.2565 30L45.1364 31.4571ZM10.5245 13.0071C12.6142 13.0071 14.2955 11.5071 14.2955 9.64286C14.2955 7.77857 12.6142 6.25714 10.5245 6.25714C9.51799 6.25714 8.5527 6.61385 7.84099 7.2488C7.12928 7.88374 6.72945 8.74491 6.72945 9.64286C6.72945 11.5071 8.43482 13.0071 10.5245 13.0071ZM18.547 10.5857L20.8768 12.1714C21.045 12.3214 21.093 12.5786 20.9489 12.7929L18.7872 16.1357C18.6671 16.35 18.3788 16.4357 18.1386 16.35L15.4485 15.3857L13.671 16.3286L13.2147 18.8786C13.1666 19.1143 12.9505 19.2857 12.6862 19.2857H8.36276C8.07453 19.2857 7.85835 19.1143 7.81032 18.8786L7.42601 16.3286L5.60054 15.3857L2.86233 16.35C2.64615 16.4357 2.38194 16.35 2.23783 16.1357L0.0760829 12.7929C-0.0680333 12.5786 0.00402525 12.3214 0.19618 12.1714L2.47802 10.5857L2.40596 9.64286L2.47802 8.7L0.19618 7.11429C0.00402525 6.96429 -0.0680333 6.70714 0.0760829 6.49286L2.23783 3.15C2.38194 2.93571 2.64615 2.85 2.86233 2.93571L5.57652 3.9L7.42601 2.95714L7.81032 0.407143C7.85835 0.171429 8.07453 0 8.36276 0H12.6862C12.9505 0 13.1666 0.171429 13.2147 0.407143L13.671 2.95714L15.4485 3.9L18.1386 2.93571C18.3788 2.85 18.6671 2.93571 18.7872 3.15L20.9489 6.49286C21.093 6.70714 21.045 6.96429 20.8768 7.11429L18.547 8.7L18.619 9.64286L18.547 10.5857Z" fill="#699DFF"/>
</svg>
