<svg width="603" height="139" viewBox="0 0 603 139" fill="none" xmlns="http://www.w3.org/2000/svg">
<path d="M183.295 16.25V21.5H215.264V16.25H228.576V45.2188H170.076V16.25H183.295ZM183.295 35.2812H215.264V31.0625H183.295V35.2812ZM238.608 48.875V59.75H205.983V64.0625H229.233V86.75H182.358V90.4062H231.295V100.531H169.045V77.5625H215.826V73.9062H169.045V64.0625H192.389V59.75H160.139V48.875H238.608ZM322.889 25.9062V37.0625H311.639V44.0938H322.889V55.1562H311.639V66.875H298.139V15.0312H311.639V25.9062H322.889ZM285.67 20.0938V46.4375H259.514V52.625C273.248 52.4844 282.436 52.0156 292.608 50.1875L294.014 60.7812C282.295 63.125 271.326 63.5938 253.42 63.5938H246.014V36.5H272.451V30.5938H245.92V20.0938H285.67ZM283.045 67.8125C301.045 67.8125 312.483 74.1875 312.483 84.5938C312.483 94.9062 301.045 100.906 283.045 100.906C264.67 100.906 253.233 94.9062 253.233 84.5938C253.233 74.1875 264.67 67.8125 283.045 67.8125ZM283.045 78.2188C272.076 78.2188 266.545 80.2812 266.639 84.5938C266.545 88.9062 272.076 90.875 283.045 90.875C293.826 90.875 299.17 88.9062 299.17 84.5938C299.17 80.2812 293.826 78.2188 283.045 78.2188Z" fill="black"/>
<path d="M121.376 86.3434L121.306 87.2021L122.012 87.6959L131.662 94.4435C131.818 94.5666 131.868 94.6831 131.882 94.7496C131.895 94.8062 131.899 94.9029 131.806 95.0523C131.805 95.0543 131.804 95.0563 131.803 95.0582L122.673 109.138C122.671 109.14 122.669 109.143 122.668 109.145C122.497 109.392 122.122 109.588 121.58 109.426L110.235 105.355L109.508 105.094L108.874 105.534C106.63 107.091 104.124 108.379 101.477 109.391L100.672 109.698L100.533 110.549L98.7674 121.341L98.7636 121.364L98.7606 121.387C98.7538 121.439 98.7169 121.541 98.5793 121.649C98.4412 121.757 98.2432 121.833 98.0246 121.833H79.7165C79.208 121.833 78.9586 121.539 78.9036 121.311L77.2097 110.558L77.0734 109.693L76.2528 109.386C73.5575 108.38 71.1184 107.096 68.8676 105.534L68.2343 105.095L67.5083 105.354L56.0657 109.437C55.6423 109.588 55.2068 109.365 55.1111 109.205L55.0971 109.182L55.0822 109.159L45.9346 95.0521C45.8423 94.9028 45.8466 94.8061 45.8587 94.7496C45.8729 94.6831 45.9234 94.5666 46.0797 94.4434L55.7294 87.6959L56.4355 87.2021L56.3648 86.3434L56.0479 82.499L56.3649 78.5964L56.4349 77.7347L55.7244 77.2422L46.0784 70.5554C45.9383 70.4436 45.8781 70.3208 45.8597 70.2331C45.8426 70.1521 45.8521 70.0712 45.9143 69.9787L45.9213 69.9683L45.9282 69.9577L55.0822 55.841L55.1085 55.8005L55.1322 55.7583C55.1802 55.6726 55.2872 55.5684 55.4846 55.5049C55.6861 55.4401 55.9015 55.4463 56.0636 55.5036C56.0643 55.5038 56.065 55.5041 56.0657 55.5043L67.5019 59.6437L68.2307 59.9075L68.8676 59.4656C71.1346 57.8926 73.5657 56.5615 76.2269 55.6228L77.0713 55.325L77.2099 54.4404L78.9013 43.6454C78.9515 43.4728 79.1954 43.1666 79.7165 43.1666H98.0246C98.244 43.1666 98.4482 43.2434 98.5928 43.354C98.7416 43.4677 98.7615 43.5609 98.7622 43.5664L98.7645 43.5828L98.7672 43.5992L100.533 54.4492L100.674 55.3196L101.504 55.6191C104.115 56.5619 106.615 57.8983 108.874 59.4656L109.512 59.9085L110.242 59.6428L121.583 55.5142C122.117 55.3557 122.473 55.5465 122.649 55.8249L122.654 55.833L122.659 55.841L131.813 69.9577L131.82 69.9683L131.827 69.9787C131.889 70.0712 131.898 70.1521 131.881 70.2331C131.863 70.3209 131.803 70.4436 131.663 70.5554L122.017 77.2422L121.306 77.7347L121.376 78.5964L121.693 82.499L121.376 86.3434ZM48.9933 29.5356L48.9272 30.4014L49.645 30.89L55.6721 34.992L49.8917 43.9306C49.8896 43.9304 49.8877 43.9302 49.8861 43.9299C49.8833 43.9294 49.8819 43.929 49.8816 43.9289C49.8815 43.9288 49.8815 43.9288 49.8815 43.9288L42.5603 41.3046L41.9366 41.081L41.3513 41.3915L36.5127 43.9581L35.8677 44.3003L35.7391 45.019L34.5195 51.8333H22.7653C22.7472 51.8333 22.7318 51.8323 22.719 51.8308L21.6985 45.0597L21.5843 44.3021L20.9036 43.9505L15.9343 41.3839L15.3587 41.0866L14.7477 41.3018L7.33178 43.9133L1.60116 35.0517L7.60171 30.8817L8.30678 30.3917L8.24136 29.5356L8.05393 27.0833L8.24136 24.6309L8.30678 23.7748L7.60171 23.2848L1.60116 19.1149L7.33171 10.2533L14.6784 12.8634L15.2867 13.0795L15.8618 12.7863L20.8965 10.2196L21.5836 9.86936L21.6985 9.10679L22.719 2.33572C22.7318 2.33424 22.7472 2.33325 22.7653 2.33325H34.5195L35.7391 9.1475L35.8677 9.86621L36.5127 10.2084L41.3513 12.775L41.9366 13.0855L42.5603 12.8619L49.8815 10.2377C49.8815 10.2377 49.8815 10.2377 49.8816 10.2376C49.8819 10.2376 49.8834 10.2371 49.8861 10.2366C49.8877 10.2363 49.8896 10.2361 49.8917 10.2359L55.6721 19.1745L49.645 23.2765L48.9272 23.7651L48.9933 24.6309L49.1808 27.0833L48.9933 29.5356ZM88.8706 98.2916C98.3605 98.2916 106.39 91.3597 106.39 82.4999C106.39 73.6401 98.3605 66.7083 88.8706 66.7083C79.311 66.7083 71.351 73.6438 71.351 82.4999C71.351 91.356 79.311 98.2916 88.8706 98.2916ZM133.071 69.1417L133.071 69.1418L133.071 69.1417ZM28.65 37.7416C35.0015 37.7416 40.4156 33.1431 40.4156 27.0833C40.4156 21.0351 35.0145 16.3666 28.65 16.3666C25.564 16.3666 22.5748 17.4587 20.3463 19.4468C18.1123 21.4398 16.819 24.1822 16.819 27.0833C16.819 33.1546 22.3116 37.7416 28.65 37.7416Z" fill="#6EB2EA" stroke="#342EAA" stroke-width="3"/>
<path fill-rule="evenodd" clip-rule="evenodd" d="M532.417 26.8333L512 62.1959L532.417 97.5587H573.25L593.667 62.1959L573.25 26.8333H532.417ZM546.028 48.5843L537.861 62.7293L546.028 76.8744H562.361L570.528 62.7293L562.361 48.5843H546.028Z" fill="white"/>
<path fill-rule="evenodd" clip-rule="evenodd" d="M423.25 19.8333L406 47.8645L423.25 75.8958H457.75L475 47.8645L457.75 19.8333H423.25ZM434.75 37.0748L427.85 48.2873L434.75 59.4998H448.55L455.45 48.2873L448.55 37.0748H434.75Z" fill="white"/>
<path d="M344.136 98.8333V92.6969L381.773 36.5151H343.727V29.0151H391.864V35.1514L354.227 91.3333H392.273V98.8333H344.136ZM486.364 98.8333V46.4696H494.136V54.3787H494.682C495.636 51.7878 497.364 49.6855 499.864 48.0719C502.364 46.4582 505.182 45.6514 508.318 45.6514C508.909 45.6514 509.648 45.6628 510.534 45.6855C511.42 45.7083 512.091 45.7423 512.545 45.7878V53.9696C512.273 53.9014 511.648 53.7992 510.67 53.6628C509.716 53.5037 508.705 53.4242 507.636 53.4242C505.091 53.4242 502.818 53.9583 500.818 55.0264C498.841 56.0719 497.273 57.5264 496.114 59.3901C494.977 61.231 494.409 63.3333 494.409 65.6969V98.8333H486.364Z" fill="black"/>
<path d="M406 86H470V99H414.828L410.414 96.8333L406 90.5V86Z" fill="white"/>
<path d="M406 48L423 70.0001V95L406 90.5238V48Z" fill="white"/>
</svg>
