<svg width="613" height="142" viewBox="0 0 613 142" fill="none" xmlns="http://www.w3.org/2000/svg">
<path d="M161.295 19.25V24.5H193.264V19.25H206.576V48.2188H148.076V19.25H161.295ZM161.295 38.2812H193.264V34.0625H161.295V38.2812ZM216.608 51.875V62.75H183.983V67.0625H207.233V89.75H160.358V93.4062H209.295V103.531H147.045V80.5625H193.826V76.9062H147.045V67.0625H170.389V62.75H138.139V51.875H216.608ZM300.889 28.9062V40.0625H289.639V47.0938H300.889V58.1562H289.639V69.875H276.139V18.0312H289.639V28.9062H300.889ZM263.67 23.0938V49.4375H237.514V55.625C251.248 55.4844 260.436 55.0156 270.608 53.1875L272.014 63.7812C260.295 66.125 249.326 66.5938 231.42 66.5938H224.014V39.5H250.451V33.5938H223.92V23.0938H263.67ZM261.045 70.8125C279.045 70.8125 290.483 77.1875 290.483 87.5938C290.483 97.9062 279.045 103.906 261.045 103.906C242.67 103.906 231.233 97.9062 231.233 87.5938C231.233 77.1875 242.67 70.8125 261.045 70.8125ZM261.045 81.2188C250.076 81.2188 244.545 83.2812 244.639 87.5938C244.545 91.9062 250.076 93.875 261.045 93.875C271.826 93.875 277.17 91.9062 277.17 87.5938C277.17 83.2812 271.826 81.2188 261.045 81.2188Z" fill="black"/>
<path d="M109.965 75.5694L109.886 76.4642L110.638 76.9561L119.388 82.6824C119.453 82.7306 119.482 82.769 119.495 82.7896C119.49 82.7992 119.483 82.813 119.472 82.8309L111.186 94.7899C111.085 94.9235 110.792 95.1053 110.304 94.9695L100.015 91.5133L99.3281 91.2826L98.7204 91.6772C96.6945 92.9928 94.4289 94.0827 92.033 94.9401L91.2111 95.2342L91.0608 96.0941L89.4593 105.256L89.4551 105.28L89.4542 105.287C89.4464 105.299 89.4253 105.327 89.3757 105.363C89.2748 105.437 89.1121 105.5 88.9203 105.5H72.3126C71.8575 105.5 71.7276 105.268 71.7071 105.213L70.1737 96.1034L70.0265 95.229L69.1894 94.9364C66.7502 94.0838 64.5454 92.9974 62.5125 91.6772L61.9062 91.2835L61.2204 91.5125L50.8406 94.9792C50.7059 95.0241 50.5131 95.0318 50.3289 94.9789C50.156 94.9292 50.0955 94.8593 50.0892 94.852C50.0886 94.8513 50.0885 94.8512 50.0887 94.8516L50.0736 94.8279L50.0576 94.8048L41.7613 82.8309C41.7496 82.813 41.7424 82.7992 41.7381 82.7896C41.7507 82.769 41.7802 82.7306 41.8448 82.6824L50.595 76.9561L51.3467 76.4642L51.2679 75.5694L50.9828 72.3324L51.268 69.0459L51.3459 68.1482L50.59 67.6578L41.8441 61.9836C41.7979 61.9485 41.7696 61.916 41.7535 61.8927C41.7466 61.8827 41.7418 61.8745 41.7387 61.8681C41.7387 61.868 41.7388 61.8678 41.7389 61.8677L41.7464 61.8573L41.7538 61.8467L50.0576 49.8619L50.086 49.821L50.1115 49.7783C50.119 49.7658 50.1752 49.6909 50.347 49.6391C50.5187 49.5874 50.7041 49.593 50.8383 49.6372C50.8391 49.6375 50.8398 49.6377 50.8406 49.638L61.2143 53.1521L61.9028 53.3854L62.5125 52.9894C64.5609 51.6592 66.7583 50.5331 69.1647 49.7387L70.0244 49.4549L70.1739 48.562L71.7039 39.4235C71.7128 39.4051 71.7402 39.3602 71.814 39.3074C71.9138 39.236 72.0808 39.1667 72.3126 39.1667H88.9203C89.1125 39.1667 89.2815 39.2303 89.3893 39.3074C89.4285 39.3355 89.4501 39.3575 89.461 39.3706L91.0606 48.5712L91.2133 49.4498L92.0581 49.7353C94.4198 50.5335 96.68 51.6644 98.7204 52.9894L99.3314 53.3863L100.021 53.1513L110.307 49.6469C110.791 49.5129 111.063 49.695 111.164 49.8457L111.17 49.8538L111.175 49.8619L119.479 61.8467L119.486 61.8573L119.494 61.8677C119.494 61.8678 119.494 61.868 119.494 61.8681C119.491 61.8745 119.486 61.8828 119.479 61.8927C119.463 61.916 119.435 61.9485 119.389 61.9836L110.643 67.6578L109.887 68.1482L109.965 69.0459L110.25 72.3324L109.965 75.5694ZM89.4705 39.384C89.4704 39.384 89.4697 39.3828 89.4685 39.3806C89.47 39.3829 89.4706 39.384 89.4705 39.384ZM44.3046 27.3427L44.231 28.244L44.9938 28.7299L50.2463 32.0756L45.221 39.3486L38.6253 37.136L38.037 36.9386L37.4813 37.2146L33.0921 39.3936L32.4256 39.7245L32.2858 40.4554L31.2119 46.0714H20.716L19.8186 40.4987L19.6943 39.7269L18.9905 39.3867L14.4827 37.2076L13.9365 36.9436L13.3604 37.1335L6.68702 39.3329L1.70612 32.1243L6.93701 28.7222L7.68703 28.2344L7.61421 27.3427L7.44624 25.2857L7.61421 23.2288L7.68703 22.337L6.93701 21.8492L1.70612 18.4471L6.68687 11.2387L13.2973 13.4367L13.8709 13.6274L14.4165 13.3671L18.9836 11.1881L19.6936 10.8494L19.8186 10.0728L20.716 4.5H31.2119L32.2858 10.116L32.4256 10.8469L33.0921 11.1778L37.4813 13.3569L38.037 13.6328L38.6253 13.4354L45.221 11.2228L50.2463 18.4958L44.9938 21.8415L44.231 22.3274L44.3046 23.2288L44.4726 25.2857L44.3046 27.3427ZM80.6164 85.9667C89.1874 85.9667 96.6482 80.0895 96.6482 72.3333C96.6482 64.5772 89.1874 58.7 80.6164 58.7C71.9819 58.7 64.5847 64.5807 64.5847 72.3333C64.5847 80.0859 71.9819 85.9667 80.6164 85.9667ZM25.9891 34.561C31.713 34.561 36.8012 30.6647 36.8012 25.2857C36.8012 19.9178 31.7262 15.961 25.9891 15.961C23.1845 15.961 20.4521 16.8889 18.4011 18.6014C16.3421 20.3205 15.1176 22.7163 15.1176 25.2857C15.1176 30.6757 20.2784 34.561 25.9891 34.561Z" fill="#6EB2EA" stroke="#342EAA" stroke-width="3"/>
<path fill-rule="evenodd" clip-rule="evenodd" d="M551.417 21.4705L531 56.8332L551.417 92.1959H592.25L612.667 56.8332L592.25 21.4705H551.417ZM565.028 43.2215L556.861 57.3665L565.028 71.5116H581.361L589.528 57.3665L581.361 43.2215H565.028Z" fill="white"/>
<path fill-rule="evenodd" clip-rule="evenodd" d="M405 22.9883L390 46.5717L405 70.155H435L450 46.5717L435 22.9883H405ZM415 37.494L409 46.9274L415 56.3607H427L433 46.9274L427 37.494H415Z" fill="white"/>
<path d="M327.136 93V86.8636L364.773 30.6818H326.727V23.1818H374.864V29.3182L337.227 85.5H375.273V93H327.136ZM470.455 93V23.1818H494.045C499.5 23.1818 503.977 24.1136 507.477 25.9773C510.977 27.8182 513.568 30.3523 515.25 33.5795C516.932 36.8068 517.773 40.4773 517.773 44.5909C517.773 48.7045 516.932 52.3523 515.25 55.5341C513.568 58.7159 510.989 61.2159 507.511 63.0341C504.034 64.8295 499.591 65.7273 494.182 65.7273H475.091V58.0909H493.909C497.636 58.0909 500.636 57.5455 502.909 56.4545C505.205 55.3636 506.864 53.8182 507.886 51.8182C508.932 49.7955 509.455 47.3864 509.455 44.5909C509.455 41.7955 508.932 39.3523 507.886 37.2614C506.841 35.1705 505.17 33.5568 502.875 32.4205C500.58 31.2614 497.545 30.6818 493.773 30.6818H478.909V93H470.455ZM503.318 61.6364L520.5 93H510.682L493.773 61.6364H503.318Z" fill="black"/>
<path d="M390 85H450V93H398.276L394.138 91.6667L390 87.7692V85Z" fill="white"/>
<path d="M390 46L404.5 68.5V88.5238L390 86V46Z" fill="white"/>
</svg>
