<svg width="470" height="139" viewBox="0 0 470 139" fill="none" xmlns="http://www.w3.org/2000/svg">
<path d="M26.1511 19.1865V24.4365H58.1199V19.1865H71.4324V48.1553H12.9324V19.1865H26.1511ZM26.1511 38.2178H58.1199V33.999H26.1511V38.2178ZM81.4636 51.8115V62.6865H48.8386V66.999H72.0886V89.6865H25.2136V93.3428H74.1511V103.468H11.9011V80.499H58.6824V76.8428H11.9011V66.999H35.2449V62.6865H2.99487V51.8115H81.4636ZM165.745 28.8428V39.999H154.495V47.0303H165.745V58.0928H154.495V69.8115H140.995V17.9678H154.495V28.8428H165.745ZM128.526 23.0303V49.374H102.37V55.5615C116.104 55.4209 125.292 54.9521 135.464 53.124L136.87 63.7178C125.151 66.0615 114.182 66.5303 96.2761 66.5303H88.8699V39.4365H115.307V33.5303H88.7761V23.0303H128.526ZM125.901 70.749C143.901 70.749 155.339 77.124 155.339 87.5303C155.339 97.8428 143.901 103.843 125.901 103.843C107.526 103.843 96.0886 97.8428 96.0886 87.5303C96.0886 77.124 107.526 70.749 125.901 70.749ZM125.901 81.1553C114.932 81.1553 109.401 83.2178 109.495 87.5303C109.401 91.8428 114.932 93.8115 125.901 93.8115C136.682 93.8115 142.026 91.8428 142.026 87.5303C142.026 83.2178 136.682 81.1553 125.901 81.1553Z" fill="black"/>
<path fill-rule="evenodd" clip-rule="evenodd" d="M409.716 21.0156L389.622 55.6295L409.716 90.2434H449.906L470 55.6295L449.906 21.0156H409.716ZM423.113 42.3061L415.075 56.1516L423.113 69.9972H439.188L447.226 56.1516L439.188 42.3061H423.113Z" fill="white"/>
<path fill-rule="evenodd" clip-rule="evenodd" d="M265.61 22.5012L250.847 45.5852L265.61 68.6692H295.137L309.9 45.5852L295.137 22.5012H265.61ZM275.452 36.6998L269.547 45.9334L275.452 55.167H287.263L293.168 45.9334L287.263 36.6998H275.452Z" fill="white"/>
<path d="M189.072 93V86.8636L226.708 30.6818H188.663V23.1818H236.799V29.3182L199.163 85.5H237.208V93H189.072ZM332.39 93V23.1818H355.981C361.435 23.1818 365.913 24.1136 369.413 25.9773C372.913 27.8182 375.503 30.3523 377.185 33.5795C378.867 36.8068 379.708 40.4773 379.708 44.5909C379.708 48.7045 378.867 52.3523 377.185 55.5341C375.503 58.7159 372.924 61.2159 369.447 63.0341C365.969 64.8295 361.526 65.7273 356.117 65.7273H337.026V58.0909H355.844C359.572 58.0909 362.572 57.5455 364.844 56.4545C367.14 55.3636 368.799 53.8182 369.822 51.8182C370.867 49.7955 371.39 47.3864 371.39 44.5909C371.39 41.7955 370.867 39.3523 369.822 37.2614C368.776 35.1705 367.106 33.5568 364.81 32.4205C362.515 31.2614 359.481 30.6818 355.708 30.6818H340.844V93H332.39ZM365.253 61.6364L382.435 93H372.617L355.708 61.6364H365.253Z" fill="black"/>
<path d="M251 80H310V91H259.138L255.069 89.1667L251 83.8077V80Z" fill="white"/>
<path d="M250.847 45.0259L265.118 67.0494V86.6492L250.847 84.1789V45.0259Z" fill="white"/>
</svg>
