<svg width="603" height="142" viewBox="0 0 603 142" fill="none" xmlns="http://www.w3.org/2000/svg">
<path d="M151.295 19.25V24.5H183.264V19.25H196.576V48.2188H138.076V19.25H151.295ZM151.295 38.2812H183.264V34.0625H151.295V38.2812ZM206.608 51.875V62.75H173.983V67.0625H197.233V89.75H150.358V93.4062H199.295V103.531H137.045V80.5625H183.826V76.9062H137.045V67.0625H160.389V62.75H128.139V51.875H206.608ZM290.889 28.9062V40.0625H279.639V47.0938H290.889V58.1562H279.639V69.875H266.139V18.0312H279.639V28.9062H290.889ZM253.67 23.0938V49.4375H227.514V55.625C241.248 55.4844 250.436 55.0156 260.608 53.1875L262.014 63.7812C250.295 66.125 239.326 66.5938 221.42 66.5938H214.014V39.5H240.451V33.5938H213.92V23.0938H253.67ZM251.045 70.8125C269.045 70.8125 280.483 77.1875 280.483 87.5938C280.483 97.9062 269.045 103.906 251.045 103.906C232.67 103.906 221.233 97.9062 221.233 87.5938C221.233 77.1875 232.67 70.8125 251.045 70.8125ZM251.045 81.2188C240.076 81.2188 234.545 83.2812 234.639 87.5938C234.545 91.9062 240.076 93.875 251.045 93.875C261.826 93.875 267.17 91.9062 267.17 87.5938C267.17 83.2812 261.826 81.2188 251.045 81.2188Z" fill="black"/>
<path d="M86.0149 78.8915L85.9382 79.7774L86.6785 80.2699L93.398 84.7398L87.0273 94.0862C87.0219 94.0925 87.0063 94.1068 86.9658 94.1188C86.9158 94.1337 86.8256 94.1439 86.7025 94.1107L78.6338 91.3557L77.9372 91.1178L77.3228 91.5234C75.756 92.5577 74.0008 93.4164 72.1414 94.0927L71.3233 94.3903L71.1758 95.2482L69.9327 102.477C69.9267 102.479 69.9201 102.482 69.9128 102.484C69.8834 102.494 69.8495 102.5 69.8134 102.5H56.7744C56.6853 102.5 56.6321 102.479 56.607 102.465L55.4136 95.2573L55.2691 94.385L54.4359 94.0889C52.5459 93.4175 50.8389 92.5623 49.265 91.5234L48.652 91.1187L47.9565 91.3549L39.807 94.1215C39.7943 94.1258 39.7669 94.1324 39.7265 94.1328C39.6861 94.1332 39.6452 94.1273 39.6098 94.1169C39.5942 94.1124 39.5816 94.1075 39.5722 94.1032L33.1898 84.7398L39.9093 80.2699L40.6496 79.7774L40.5729 78.8915L40.3512 76.3324L40.573 73.7338L40.6489 72.8451L39.9043 72.354L33.1903 67.9262L39.5728 58.5625L39.6007 58.5216L39.6023 58.5189C39.6087 58.5162 39.6172 58.513 39.6281 58.5097C39.6582 58.5004 39.6945 58.4948 39.7314 58.495C39.7672 58.4953 39.7926 58.5009 39.8057 58.5052C39.8062 58.5053 39.8066 58.5055 39.807 58.5056L47.9503 61.3097L48.6486 61.5502L49.265 61.1433C50.8545 60.094 52.5541 59.2094 54.4109 58.5864L55.267 58.2991L55.4138 57.408L56.6004 50.2031C56.6314 50.1868 56.6879 50.1667 56.7744 50.1667H69.8134C69.8495 50.1667 69.885 50.1726 69.9173 50.1831C69.9254 50.1858 69.9329 50.1885 69.9397 50.1914L71.1756 57.4172L71.3255 58.2939L72.1668 58.5829C73.9916 59.2098 75.7413 60.0993 77.3228 61.1433L77.9405 61.5511L78.64 61.3088L86.7049 58.5158C86.8263 58.4835 86.9084 58.4955 86.9472 58.5076C86.9823 58.5185 86.9941 58.5311 87.0041 58.5463L87.0095 58.5544L87.015 58.5625L93.3975 67.9262L86.6835 72.354L85.9389 72.8451L86.0148 73.7338L86.2366 76.3324L86.0149 78.8915ZM39.5855 58.5277C39.5856 58.5275 39.5867 58.5268 39.5887 58.5256C39.5866 58.5273 39.5854 58.5279 39.5855 58.5277ZM34.4632 40.4046L34.3915 41.2972L35.1432 41.7839L39.0106 44.288L35.3715 49.6417L30.4353 47.9584L29.8383 47.7548L29.2753 48.039L25.8293 49.778L25.1679 50.1118L25.0309 50.8398L24.2349 55.0714H16.5425L15.8789 50.8824L15.7571 50.114L15.0589 49.7709L11.5197 48.0318L10.9663 47.7599L10.3817 47.9558L5.3835 49.6303L1.77685 44.3244L5.63156 41.776L6.37043 41.2876L6.29951 40.4046L6.16945 38.7857L6.29951 37.1668L6.37043 36.2839L5.63156 35.7954L1.77685 33.247L5.38299 27.9419L10.3313 29.6144L10.9134 29.8111L11.4662 29.543L15.0519 27.8039L15.7564 27.4623L15.8789 26.689L16.5425 22.5H24.2349L25.0309 26.7316L25.1679 27.4597L25.8293 27.7934L29.2753 29.5325L29.8383 29.8166L30.4353 29.6131L35.3715 27.9298L39.0107 33.2834L35.1432 35.7876L34.3915 36.2742L34.4632 37.1668L34.5933 38.7857L34.4632 40.4046ZM63.2939 87.5167C70.169 87.5167 76.2031 82.7187 76.2031 76.3333C76.2031 69.948 70.169 65.15 63.2939 65.15C56.368 65.15 50.3847 69.9516 50.3847 76.3333C50.3847 82.7151 56.368 87.5167 63.2939 87.5167ZM20.4046 46.4909C25.0444 46.4909 29.2159 43.274 29.2159 38.7857C29.2159 34.3087 25.0576 31.041 20.4046 31.041C18.1277 31.041 15.9042 31.8065 14.2313 33.2264C12.5509 34.6526 11.5469 36.6449 11.5469 38.7857C11.5469 43.2851 15.7781 46.4909 20.4046 46.4909Z" fill="#6EB2EA" stroke="#342EAA" stroke-width="3"/>
<path fill-rule="evenodd" clip-rule="evenodd" d="M541.417 21.4705L521 56.8332L541.417 92.1959H582.25L602.667 56.8332L582.25 21.4705H541.417ZM555.028 43.2215L546.861 57.3665L555.028 71.5116H571.361L579.528 57.3665L571.361 43.2215H555.028Z" fill="white"/>
<path fill-rule="evenodd" clip-rule="evenodd" d="M395 22.9883L380 46.5717L395 70.155H425L440 46.5717L425 22.9883H395ZM405 37.494L399 46.9274L405 56.3607H417L423 46.9274L417 37.494H405Z" fill="white"/>
<path d="M317.136 93V86.8636L354.773 30.6818H316.727V23.1818H364.864V29.3182L327.227 85.5H365.273V93H317.136ZM460.455 93V23.1818H484.045C489.5 23.1818 493.977 24.1136 497.477 25.9773C500.977 27.8182 503.568 30.3523 505.25 33.5795C506.932 36.8068 507.773 40.4773 507.773 44.5909C507.773 48.7045 506.932 52.3523 505.25 55.5341C503.568 58.7159 500.989 61.2159 497.511 63.0341C494.034 64.8295 489.591 65.7273 484.182 65.7273H465.091V58.0909H483.909C487.636 58.0909 490.636 57.5455 492.909 56.4545C495.205 55.3636 496.864 53.8182 497.886 51.8182C498.932 49.7955 499.455 47.3864 499.455 44.5909C499.455 41.7955 498.932 39.3523 497.886 37.2614C496.841 35.1705 495.17 33.5568 492.875 32.4205C490.58 31.2614 487.545 30.6818 483.773 30.6818H468.909V93H460.455ZM493.318 61.6364L510.5 93H500.682L483.773 61.6364H493.318Z" fill="black"/>
<path d="M380 85H440V93H388.276L384.138 91.6667L380 87.7692V85Z" fill="white"/>
<path d="M380 46L394.5 68.5V88.5238L380 86V46Z" fill="white"/>
</svg>
