<svg width="617" height="139" viewBox="0 0 617 139" fill="none" xmlns="http://www.w3.org/2000/svg">
<path d="M173.151 19.1865V24.4365H205.12V19.1865H218.432V48.1553H159.932V19.1865H173.151ZM173.151 38.2178H205.12V33.999H173.151V38.2178ZM228.464 51.8115V62.6865H195.839V66.999H219.089V89.6865H172.214V93.3428H221.151V103.468H158.901V80.499H205.682V76.8428H158.901V66.999H182.245V62.6865H149.995V51.8115H228.464ZM312.745 28.8428V39.999H301.495V47.0303H312.745V58.0928H301.495V69.8115H287.995V17.9678H301.495V28.8428H312.745ZM275.526 23.0303V49.374H249.37V55.5615C263.104 55.4209 272.292 54.9521 282.464 53.124L283.87 63.7178C272.151 66.0615 261.182 66.5303 243.276 66.5303H235.87V39.4365H262.307V33.5303H235.776V23.0303H275.526ZM272.901 70.749C290.901 70.749 302.339 77.124 302.339 87.5303C302.339 97.8428 290.901 103.843 272.901 103.843C254.526 103.843 243.089 97.8428 243.089 87.5303C243.089 77.124 254.526 70.749 272.901 70.749ZM272.901 81.1553C261.932 81.1553 256.401 83.2178 256.495 87.5303C256.401 91.8428 261.932 93.8115 272.901 93.8115C283.682 93.8115 289.026 91.8428 289.026 87.5303C289.026 83.2178 283.682 81.1553 272.901 81.1553Z" fill="black"/>
<path d="M108.207 73.9657L108.127 74.8635L108.882 75.3552L117.494 80.9599C117.539 80.9931 117.565 81.0206 117.579 81.0395C117.576 81.0444 117.573 81.05 117.569 81.0563L109.415 92.7609C109.323 92.8809 109.044 93.059 108.569 92.9276L98.4421 89.5447L97.7585 89.3163L97.153 89.7073C95.1608 90.994 92.9324 92.0602 90.5754 92.899L89.7522 93.1919L89.601 94.0525L88.0248 103.02L88.0208 103.043C88.0121 103.055 87.993 103.076 87.9547 103.104C87.8594 103.173 87.7031 103.234 87.5173 103.234H71.1717C70.7329 103.234 70.6155 103.016 70.5981 102.975L69.0896 94.0618L68.9415 93.1867L68.1032 92.8953C65.7037 92.0613 63.5352 90.9985 61.5359 89.7073L60.9318 89.3171L60.2493 89.5438L50.0333 92.9371C49.9042 92.98 49.7176 92.9876 49.5393 92.9366C49.3836 92.8921 49.3255 92.8318 49.3167 92.8226C49.3152 92.8211 49.3152 92.821 49.3162 92.8227L49.3011 92.7992L49.285 92.776L41.1199 81.056C41.1158 81.0499 41.1125 81.0444 41.1096 81.0395C41.1243 81.0206 41.1504 80.993 41.195 80.9599L49.8065 75.3552L50.562 74.8635L50.4825 73.9657L50.2022 70.8008L50.4826 67.5873L50.5612 66.6867L49.8016 66.1965L41.1942 60.6428C41.1498 60.6092 41.1248 60.5799 41.1112 60.5598L41.1122 60.5584L49.285 48.8274L49.3136 48.7864L49.3393 48.7437C49.3417 48.7397 49.3908 48.669 49.5573 48.6192C49.7235 48.5694 49.9029 48.575 50.0316 48.6173C50.0321 48.6175 50.0327 48.6177 50.0333 48.6179L60.2432 52.0576L60.9285 52.2884L61.5359 51.8961C63.5507 50.5949 65.7118 49.4934 68.0785 48.7164L68.9394 48.4338L69.0899 47.5403L70.5946 38.6012C70.6034 38.5853 70.6284 38.5481 70.6915 38.5032C70.7857 38.4362 70.9464 38.3691 71.1717 38.3691H87.5173C87.7035 38.3691 87.8662 38.4306 87.9683 38.5032C87.9987 38.5249 88.0174 38.5423 88.0282 38.5539L89.6007 47.5496L89.7544 48.4288L90.6004 48.7131C92.9232 49.4938 95.1463 50.6 97.153 51.8961L97.7618 52.2893L98.4482 52.0567L108.571 48.6267C109.044 48.4969 109.301 48.6759 109.393 48.8112L109.398 48.8193L109.404 48.8274L117.577 60.5584L117.578 60.5598C117.564 60.5798 117.539 60.6092 117.495 60.6428L108.887 66.1965L108.128 66.6867L108.206 67.5873L108.487 70.8008L108.207 73.9657ZM88.0269 103.033C88.027 103.033 88.0265 103.035 88.0251 103.037C88.0261 103.034 88.0268 103.033 88.0269 103.033ZM88.0408 38.57C88.0407 38.57 88.0397 38.5686 88.0382 38.5658C88.0402 38.5686 88.041 38.57 88.0408 38.57ZM43.5821 26.7605L43.5078 27.6648L44.2743 28.1504L49.4145 31.4066L44.4999 38.4803L38.0211 36.3188L37.4357 36.1235L36.8823 36.3967L32.5624 38.5296L31.8941 38.8595L31.7534 39.5914L30.7011 45.0641H20.4082L19.5291 39.6348L19.4039 38.8619L18.6983 38.5227L14.2616 36.3898L13.7178 36.1284L13.1445 36.3163L6.58914 38.465L1.71807 31.454L6.83731 28.1427L7.59107 27.6552L7.51761 26.7605L7.35256 24.7503L7.51761 22.7402L7.59107 21.8455L6.83731 21.3579L1.71807 18.0467L6.58898 11.0359L13.0824 13.1832L13.6532 13.3719L14.1963 13.1142L18.6914 10.9813L19.4032 10.6435L19.5291 9.86585L20.4082 4.43652H30.7011L31.7534 9.90932L31.8941 10.6412L32.5624 10.9711L36.8823 13.104L37.4357 13.3772L38.0211 13.1819L44.4999 11.0204L49.4145 18.0941L44.2743 21.3503L43.5078 21.8359L43.5821 22.7402L43.7471 24.7503L43.5821 26.7605ZM20.2649 4.44292C20.2649 4.44291 20.2652 4.44276 20.266 4.44253L20.2649 4.44292ZM79.3445 84.1781C87.7808 84.1781 95.1469 78.4232 95.1469 70.8017C95.1469 63.1802 87.7808 57.4253 79.3445 57.4253C70.8456 57.4253 63.5421 63.1838 63.5421 70.8017C63.5421 78.4197 70.8456 84.1781 79.3445 84.1781ZM25.579 33.8609C31.2132 33.8609 36.2443 30.045 36.2443 24.7503C36.2443 19.4667 31.2265 15.5913 25.579 15.5913C22.8158 15.5913 20.1221 16.5004 18.0987 18.1805C16.0672 19.8674 14.8554 22.2217 14.8554 24.7503C14.8554 30.056 19.9581 33.8609 25.579 33.8609Z" fill="#6EB2EA" stroke="#342EAA" stroke-width="3"/>
<path fill-rule="evenodd" clip-rule="evenodd" d="M556.716 21.0157L536.622 55.6296L556.716 90.2435H596.906L617 55.6296L596.906 21.0157H556.716ZM570.113 42.3062L562.075 56.1517L570.113 69.9973H586.188L594.226 56.1517L586.188 42.3062H570.113Z" fill="white"/>
<path fill-rule="evenodd" clip-rule="evenodd" d="M412.61 22.5014L397.847 45.5854L412.61 68.6693H442.137L456.9 45.5854L442.137 22.5014H412.61ZM422.452 36.6999L416.547 45.9335L422.452 55.1671H434.263L440.168 45.9335L434.263 36.6999H422.452Z" fill="white"/>
<path d="M336.072 93V86.8636L373.708 30.6818H335.663V23.1818H383.799V29.3182L346.163 85.5H384.208V93H336.072ZM479.39 93V23.1818H502.981C508.435 23.1818 512.913 24.1136 516.413 25.9773C519.913 27.8182 522.503 30.3523 524.185 33.5795C525.867 36.8068 526.708 40.4773 526.708 44.5909C526.708 48.7045 525.867 52.3523 524.185 55.5341C522.503 58.7159 519.924 61.2159 516.447 63.0341C512.969 64.8295 508.526 65.7273 503.117 65.7273H484.026V58.0909H502.844C506.572 58.0909 509.572 57.5455 511.844 56.4545C514.14 55.3636 515.799 53.8182 516.822 51.8182C517.867 49.7955 518.39 47.3864 518.39 44.5909C518.39 41.7955 517.867 39.3523 516.822 37.2614C515.776 35.1705 514.106 33.5568 511.81 32.4205C509.515 31.2614 506.481 30.6818 502.708 30.6818H487.844V93H479.39ZM512.253 61.6364L529.435 93H519.617L502.708 61.6364H512.253Z" fill="black"/>
<path d="M398 80H457V91H406.138L402.069 89.1667L398 83.8077V80Z" fill="white"/>
<path d="M397.847 45.0259L412.118 67.0494V86.6492L397.847 84.1789V45.0259Z" fill="white"/>
</svg>
