<svg width="49" height="45" viewBox="0 0 49 45" fill="none" xmlns="http://www.w3.org/2000/svg">
<path d="M32.6463 35.25C35.8889 35.25 38.5311 32.8929 38.5311 30C38.5311 27.1071 35.8889 24.75 32.6463 24.75C29.3797 24.75 26.7616 27.1071 26.7616 30C26.7616 32.8929 29.3797 35.25 32.6463 35.25ZM45.1364 31.4571L48.6913 33.9429C49.0035 34.1786 49.0996 34.5643 48.8834 34.9071L45.5207 40.0929C45.3045 40.4143 44.8962 40.5429 44.4879 40.4143L40.3085 38.9143C39.4438 39.5143 38.483 40.0071 37.4742 40.3929L36.8257 44.3571C36.7777 44.7214 36.4174 45 36.009 45H29.2836C28.8513 45 28.515 44.7214 28.4429 44.3571L27.8184 40.3929C26.7856 40.0071 25.8489 39.5143 24.9842 38.9143L20.7808 40.4143C20.4205 40.5429 19.9641 40.4143 19.772 40.0929L16.4092 34.9071C16.1931 34.5643 16.2891 34.1786 16.6014 33.9429L20.1563 31.4571L20.0362 30L20.1563 28.5214L16.6014 26.0571C16.2891 25.8214 16.1931 25.4143 16.4092 25.0929L19.772 19.9071C19.9641 19.5643 20.4205 19.4357 20.7808 19.5643L24.9842 21.0857C25.8489 20.4857 26.7856 19.9714 27.8184 19.6071L28.4429 15.6214C28.515 15.2786 28.8513 15 29.2836 15H36.009C36.4174 15 36.7777 15.2786 36.8257 15.6214L37.4742 19.6071C38.483 19.9714 39.4438 20.4857 40.3085 21.0857L44.4879 19.5643C44.8962 19.4357 45.3045 19.5643 45.5207 19.9071L48.8834 25.0929C49.0996 25.4143 49.0035 25.8214 48.6913 26.0571L45.1364 28.5214L45.2565 30L45.1364 31.4571ZM10.5245 13.0071C12.6142 13.0071 14.2955 11.5071 14.2955 9.64286C14.2955 7.77857 12.6142 6.25714 10.5245 6.25714C9.51799 6.25714 8.5527 6.61385 7.84099 7.2488C7.12928 7.88374 6.72944 8.74491 6.72944 9.64286C6.72944 11.5071 8.43482 13.0071 10.5245 13.0071ZM18.547 10.5857L20.8768 12.1714C21.045 12.3214 21.093 12.5786 20.9489 12.7929L18.7872 16.1357C18.6671 16.35 18.3788 16.4357 18.1386 16.35L15.4485 15.3857L13.671 16.3286L13.2147 18.8786C13.1666 19.1143 12.9505 19.2857 12.6862 19.2857H8.36276C8.07453 19.2857 7.85835 19.1143 7.81032 18.8786L7.42601 16.3286L5.60053 15.3857L2.86233 16.35C2.64615 16.4357 2.38194 16.35 2.23783 16.1357L0.0760829 12.7929C-0.0680333 12.5786 0.00402525 12.3214 0.19618 12.1714L2.47802 10.5857L2.40596 9.64286L2.47802 8.7L0.19618 7.11429C0.00402525 6.96429 -0.0680333 6.70714 0.0760829 6.49286L2.23783 3.15C2.38194 2.93571 2.64615 2.85 2.86233 2.93571L5.57652 3.9L7.42601 2.95714L7.81032 0.407143C7.85835 0.171429 8.07453 0 8.36276 0H12.6862C12.9505 0 13.1666 0.171429 13.2147 0.407143L13.671 2.95714L15.4485 3.9L18.1386 2.93571C18.3788 2.85 18.6671 2.93571 18.7872 3.15L20.9489 6.49286C21.093 6.70714 21.045 6.96429 20.8768 7.11429L18.547 8.7L18.619 9.64286L18.547 10.5857Z" fill="#699DFF"/>
</svg>
