<svg width="60" height="60" viewBox="0 0 60 60" fill="none" xmlns="http://www.w3.org/2000/svg">
<rect width="60" height="60" rx="10" fill="#EBFF99"/>
<path d="M47.375 20.125C47.375 24.2688 39.8187 27.625 30.5 27.625C21.1813 27.625 13.625 24.2688 13.625 20.125M47.375 20.125C47.375 15.9812 39.8187 12.625 30.5 12.625C21.1813 12.625 13.625 15.9812 13.625 20.125M47.375 20.125V29.5M13.625 20.125V29.5M47.375 29.5C47.375 33.6438 39.8187 37 30.5 37C21.1813 37 13.625 33.6438 13.625 29.5M47.375 29.5V38.875C47.375 43.0188 39.8187 46.375 30.5 46.375C21.1813 46.375 13.625 43.0188 13.625 38.875V29.5" stroke="white" stroke-width="3.33333" stroke-linecap="round" stroke-linejoin="round"/>
</svg>
