<svg width="50" height="50" viewBox="0 0 50 50" fill="none" xmlns="http://www.w3.org/2000/svg">
<rect x="2" y="2" width="45" height="45" rx="10" fill="#FF4A4A"/>
<path d="M25 41.6668C29.4202 41.6668 33.6595 39.9108 36.7851 36.7852C39.9107 33.6596 41.6666 29.4204 41.6666 25.0001C41.6666 20.5798 39.9107 16.3406 36.7851 13.215C33.6595 10.0894 29.4202 8.33342 25 8.33342C20.5797 8.33342 16.3405 10.0894 13.2148 13.215C10.0892 16.3406 8.33329 20.5798 8.33329 25.0001C8.33329 29.4204 10.0892 33.6596 13.2148 36.7852C16.3405 39.9108 20.5797 41.6668 25 41.6668ZM25 45.8334C13.4937 45.8334 4.16663 36.5063 4.16663 25.0001C4.16663 13.4938 13.4937 4.16675 25 4.16675C36.5062 4.16675 45.8333 13.4938 45.8333 25.0001C45.8333 36.5063 36.5062 45.8334 25 45.8334ZM22.9166 33.3334H27.0833V37.5001H22.9166V33.3334ZM22.9166 12.5001H27.0833V29.1667H22.9166V12.5001Z" fill="white"/>
</svg>
