<svg width="49" height="34" viewBox="0 0 49 34" fill="none" xmlns="http://www.w3.org/2000/svg">
<path d="M24.5 2.83325C35.7761 2.83325 44.9166 9.17567 44.9166 16.9999C44.9166 24.8242 35.7761 31.1666 24.5 31.1666C13.2239 31.1666 4.08331 24.8242 4.08331 16.9999C4.08331 9.17567 13.2239 2.83325 24.5 2.83325ZM24.5 5.66659C20.1681 5.66659 16.0137 6.86063 12.9506 8.98604C9.88747 11.1115 8.16665 13.9941 8.16665 16.9999C8.16665 20.0057 9.88747 22.8884 12.9506 25.0138C16.0137 27.1392 20.1681 28.3333 24.5 28.3333C28.8318 28.3333 32.9863 27.1392 36.0494 25.0138C39.1125 22.8884 40.8333 20.0057 40.8333 16.9999C40.8333 13.9941 39.1125 11.1115 36.0494 8.98604C32.9863 6.86063 28.8318 5.66659 24.5 5.66659ZM24.5 21.2499C25.0415 21.2499 25.5608 21.3992 25.9437 21.6649C26.3265 21.9305 26.5416 22.2909 26.5416 22.6666C26.5416 23.0423 26.3265 23.4026 25.9437 23.6683C25.5608 23.934 25.0415 24.0833 24.5 24.0833C23.9585 24.0833 23.4392 23.934 23.0563 23.6683C22.6734 23.4026 22.4583 23.0423 22.4583 22.6666C22.4583 22.2909 22.6734 21.9305 23.0563 21.6649C23.4392 21.3992 23.9585 21.2499 24.5 21.2499ZM24.5 8.49992C25.0415 8.49992 25.5608 8.64917 25.9437 8.91485C26.3265 9.18053 26.5416 9.54086 26.5416 9.91658V18.4166C26.5416 18.7923 26.3265 19.1526 25.9437 19.4183C25.5608 19.684 25.0415 19.8333 24.5 19.8333C23.9585 19.8333 23.4392 19.684 23.0563 19.4183C22.6734 19.1526 22.4583 18.7923 22.4583 18.4166V9.91658C22.4583 9.54086 22.6734 9.18053 23.0563 8.91485C23.4392 8.64917 23.9585 8.49992 24.5 8.49992Z" fill="white"/>
</svg>
