<svg width="45" height="45" viewBox="0 0 45 45" fill="none" xmlns="http://www.w3.org/2000/svg">
<rect width="45" height="45" rx="10" fill="#1976D2"/>
<path d="M22 34.3335C25.0058 34.3335 27.8885 33.1395 30.0139 31.014C32.1393 28.8886 33.3334 26.006 33.3334 23.0002C33.3334 19.9944 32.1393 17.1117 30.0139 14.9863C27.8885 12.8609 25.0058 11.6668 22 11.6668C18.9943 11.6668 16.1116 12.8609 13.9862 14.9863C11.8608 17.1117 10.6667 19.9944 10.6667 23.0002C10.6667 26.006 11.8608 28.8886 13.9862 31.014C16.1116 33.1395 18.9943 34.3335 22 34.3335ZM22 37.1668C14.1758 37.1668 7.83337 30.8244 7.83337 23.0002C7.83337 15.1759 14.1758 8.8335 22 8.8335C29.8243 8.8335 36.1667 15.1759 36.1667 23.0002C36.1667 30.8244 29.8243 37.1668 22 37.1668ZM20.5834 28.6668H23.4167V31.5002H20.5834V28.6668ZM20.5834 14.5002H23.4167V25.8335H20.5834V14.5002Z" fill="white"/>
</svg>
