<svg width="80" height="80" viewBox="0 0 80 80" fill="none" xmlns="http://www.w3.org/2000/svg">
<rect width="80" height="80" rx="10" fill="#6C52FF"/>
<path d="M32.5 43.75V32.5C32.5 30.1425 32.5 28.965 31.7675 28.2325C31.035 27.5 29.8575 27.5 27.5 27.5H22.5C20.1425 27.5 18.965 27.5 18.2325 28.2325C17.5 28.965 17.5 30.1425 17.5 32.5V55C17.5 59.715 17.5 62.07 18.965 63.535C20.43 65 22.785 65 27.5 65H32.5M32.5 43.75L40.7925 39.605C43.5425 38.23 44.9175 37.54 45.985 37.9975C46.2131 38.0947 46.4254 38.2253 46.615 38.385C47.5 39.135 47.5 40.6725 47.5 43.75L55.265 39.8675C58.5075 38.2475 60.1275 37.435 61.315 38.1675C62.5025 38.9 62.5 40.715 62.5 44.3425V55C62.5 59.715 62.5 62.07 61.035 63.535C59.57 65 57.215 65 52.5 65H32.5M32.5 43.75V65M17.5 35H32.5M42.5 15H30C27.6425 15 26.465 15 25.7325 15.7325C25 16.465 25 17.6425 25 20M50 15H52.5M37.5 22.5H52.5" stroke="white" stroke-width="3.75" stroke-linecap="round" stroke-linejoin="round"/>
</svg>
