<svg width="60" height="60" viewBox="0 0 60 60" fill="none" xmlns="http://www.w3.org/2000/svg">
<rect width="60" height="60" rx="10" fill="#1976D2"/>
<path d="M24.375 32.8125V24.375C24.375 22.6069 24.375 21.7238 23.8256 21.1744C23.2762 20.625 22.3931 20.625 20.625 20.625H16.875C15.1069 20.625 14.2237 20.625 13.6744 21.1744C13.125 21.7238 13.125 22.6069 13.125 24.375V41.25C13.125 44.7863 13.125 46.5525 14.2237 47.6512C15.3225 48.75 17.0887 48.75 20.625 48.75H24.375M24.375 32.8125L30.5944 29.7038C32.6569 28.6725 33.6881 28.155 34.4888 28.4981C34.6598 28.571 34.819 28.669 34.9612 28.7888C35.625 29.3513 35.625 30.5044 35.625 32.8125L41.4488 29.9006C43.8806 28.6856 45.0956 28.0763 45.9862 28.6256C46.8769 29.175 46.875 30.5363 46.875 33.2569V41.25C46.875 44.7863 46.875 46.5525 45.7762 47.6512C44.6775 48.75 42.9113 48.75 39.375 48.75H24.375M24.375 32.8125V48.75M13.125 26.25H24.375M31.875 11.25H22.5C20.7319 11.25 19.8488 11.25 19.2994 11.7994C18.75 12.3487 18.75 13.2319 18.75 15M37.5 11.25H39.375M28.125 16.875H39.375" stroke="white" stroke-width="3.75" stroke-linecap="round" stroke-linejoin="round"/>
</svg>
