<svg width="80" height="80" viewBox="0 0 80 80" fill="none" xmlns="http://www.w3.org/2000/svg">
<rect width="80" height="80" rx="10" fill="#699DFF"/>
<path d="M55 49.375V53.125H58.2775C56.1982 56.0308 53.4546 58.3976 50.2753 60.0283C47.096 61.6591 43.5731 62.5065 40 62.5C27.5931 62.5 17.5 52.4069 17.5 40H13.75C13.75 54.475 25.525 66.25 40 66.25C48.1656 66.25 55.7013 62.4981 60.625 56.2281V58.75H64.375V49.375H55Z" fill="white"/>
<path d="M52.1969 31.8195L40.9675 25.257C40.6809 25.0893 40.3548 25.0008 40.0228 25.0005C39.6907 25.0002 39.3645 25.088 39.0775 25.2551L27.8069 31.8176C27.5234 31.9826 27.2882 32.219 27.1247 32.5032C26.9612 32.7875 26.8751 33.1097 26.875 33.4376V46.5626C26.8751 46.8905 26.9612 47.2127 27.1247 47.497C27.2882 47.7812 27.5234 48.0177 27.8069 48.1826L39.0775 54.7451C39.3564 54.9118 39.6751 54.9999 40 55.0001C40.3262 55.0001 40.675 54.9157 40.9675 54.7432L52.1969 48.1807C52.4793 48.0155 52.7136 47.7792 52.8764 47.4953C53.0393 47.2114 53.125 46.8899 53.125 46.5626V33.4376C53.125 33.1104 53.0393 32.7888 52.8764 32.5049C52.7136 32.2211 52.4793 31.9847 52.1969 31.8195ZM40.0206 29.0445L47.5337 33.4376L40.0206 37.8289L32.4775 33.4376L40.0206 29.0445ZM30.625 36.7001L38.125 41.0689V49.8532L30.625 45.4845V36.7001ZM41.875 49.872V41.0914L49.375 36.7076V45.4882L41.875 49.872Z" fill="white"/>
<path d="M40 13.75C36.0268 13.7443 32.1044 14.6438 28.5307 16.3803C24.957 18.1168 21.8259 20.6446 19.375 23.7719V21.25H15.625V30.625H25V26.875H21.7225C23.8018 23.9693 26.5454 21.6024 29.7247 19.9717C32.904 18.341 36.4269 17.4935 40 17.5C52.4069 17.5 62.5 27.5932 62.5 40H66.25C66.25 25.525 54.475 13.75 40 13.75Z" fill="white"/>
</svg>
