<svg width="60" height="60" viewBox="0 0 60 60" fill="none" xmlns="http://www.w3.org/2000/svg">
<rect width="60" height="60" rx="10" fill="#1976D2"/>
<path d="M41.25 37.0312V39.8438H43.7081C42.1486 42.0231 40.0909 43.7982 37.7065 45.0213C35.322 46.2443 32.6798 46.8799 30 46.875C20.6948 46.875 13.125 39.3052 13.125 30H10.3125C10.3125 40.8562 19.1438 49.6875 30 49.6875C36.1242 49.6875 41.7759 46.8736 45.4688 42.1711V44.0625H48.2812V37.0312H41.25Z" fill="white"/>
<path d="M39.1477 23.8645L30.7256 18.9426C30.5106 18.8169 30.2661 18.7505 30.0171 18.7502C29.768 18.75 29.5234 18.8159 29.3081 18.9412L20.8552 23.8631C20.6426 23.9868 20.4662 24.1641 20.3435 24.3773C20.2209 24.5905 20.1563 24.8321 20.1562 25.0781V34.9218C20.1563 35.1678 20.2209 35.4094 20.3435 35.6226C20.4662 35.8358 20.6426 36.0131 20.8552 36.1368L29.3081 41.0587C29.5173 41.1837 29.7563 41.2498 30 41.25C30.2447 41.25 30.5063 41.1867 30.7256 41.0573L39.1477 36.1354C39.3595 36.0115 39.5352 35.8342 39.6573 35.6213C39.7795 35.4084 39.8437 35.1673 39.8438 34.9218V25.0781C39.8437 24.8326 39.7795 24.5915 39.6573 24.3786C39.5352 24.1657 39.3595 23.9884 39.1477 23.8645ZM30.0155 21.7832L35.6503 25.0781L30.0155 28.3715L24.3581 25.0781L30.0155 21.7832ZM22.9688 27.525L28.5938 30.8015V37.3898L22.9688 34.1132V27.525ZM31.4062 37.4039V30.8184L37.0312 27.5306V34.1161L31.4062 37.4039Z" fill="white"/>
<path d="M30 10.3125C27.0201 10.3082 24.0783 10.9828 21.398 12.2852C18.7178 13.5876 16.3694 15.4835 14.5312 17.8289V15.9375H11.7188V22.9688H18.75V20.1563H16.2919C17.8514 17.9769 19.9091 16.2018 22.2935 14.9788C24.678 13.7557 27.3202 13.1202 30 13.125C39.3052 13.125 46.875 20.6949 46.875 30H49.6875C49.6875 19.1438 40.8562 10.3125 30 10.3125Z" fill="white"/>
</svg>
