<svg width="60" height="60" viewBox="0 0 60 60" fill="none" xmlns="http://www.w3.org/2000/svg">
<rect width="60" height="60" rx="10" fill="#1976D2"/>
<path d="M47.375 38.0001V23.0001C47.3743 22.3424 47.2007 21.6966 46.8716 21.1272C46.5425 20.5579 46.0695 20.0851 45.5 19.7563L32.375 12.2563C31.8049 11.9272 31.1583 11.7539 30.5 11.7539C29.8417 11.7539 29.1951 11.9272 28.625 12.2563L15.5 19.7563C14.9305 20.0851 14.4575 20.5579 14.1284 21.1272C13.7993 21.6966 13.6257 22.3424 13.625 23.0001V38.0001C13.6257 38.6577 13.7993 39.3035 14.1284 39.8729C14.4575 40.4422 14.9305 40.915 15.5 41.2438L28.625 48.7438C29.1951 49.0729 29.8417 49.2462 30.5 49.2462C31.1583 49.2462 31.8049 49.0729 32.375 48.7438L45.5 41.2438C46.0695 40.915 46.5425 40.4422 46.8716 39.8729C47.2007 39.3035 47.3743 38.6577 47.375 38.0001Z" stroke="white" stroke-width="4" stroke-linecap="round" stroke-linejoin="round"/>
<path d="M30.5 38C34.6421 38 38 34.6421 38 30.5C38 26.3579 34.6421 23 30.5 23C26.3579 23 23 26.3579 23 30.5C23 34.6421 26.3579 38 30.5 38Z" stroke="white" stroke-width="4" stroke-linecap="round" stroke-linejoin="round"/>
<path d="M50 12L11 51" stroke="white" stroke-width="5" stroke-linecap="round"/>
</svg>
