<svg width="93" height="97" viewBox="0 0 93 97" fill="none" xmlns="http://www.w3.org/2000/svg">
<path d="M90.8038 61.3773L90.8097 61.3807C91.1267 61.5618 91.3206 61.9637 91.2059 62.4171C89.1042 69.1605 85.5312 75.244 80.863 80.2902L80.8573 80.2963L80.8518 80.3024C80.5933 80.5881 80.1787 80.6606 79.82 80.457C79.8192 80.4565 79.8184 80.4561 79.8177 80.4556L71.5033 75.6543L70.5874 75.1255L69.7817 75.8104C66.4039 78.6815 62.5391 80.9139 58.3753 82.3956L57.3781 82.7504V83.8088V93.4182C57.3781 93.8132 57.1014 94.1551 56.7225 94.2378L56.715 94.2394C50.1086 95.7159 42.9883 95.7916 36.0412 94.2394L36.0338 94.2378C35.6549 94.1551 35.3781 93.8132 35.3781 93.4182V83.8088V82.7443L34.3734 82.3929C30.1953 80.9315 26.3356 78.7019 22.9814 75.8162L22.1747 75.1221L21.253 75.6543L12.9327 80.459L12.927 80.4623C12.6152 80.6442 12.1732 80.5903 11.8941 80.291C7.22036 75.2196 3.64519 69.1289 1.54447 62.3981C1.42636 61.9867 1.60049 61.5868 1.92705 61.4002L1.93295 61.3968L10.2533 56.5921L11.1712 56.062L10.978 55.0198C10.1717 50.6693 10.1717 46.2061 10.978 41.8556L11.1712 40.8133L10.2533 40.2832L1.93296 35.4785L1.92704 35.4752C1.5783 35.2759 1.42073 34.8705 1.5394 34.4936L1.54098 34.4885C3.64143 27.733 7.21812 21.639 11.8933 16.5852L11.8989 16.5791L11.9045 16.573C12.1629 16.2874 12.5772 16.2148 12.9359 16.4182C12.9368 16.4187 12.9377 16.4192 12.9386 16.4197L21.2322 21.2203L22.1484 21.7506L22.9551 21.065C26.3329 18.1938 30.1977 15.9615 34.3615 14.4798L35.3586 14.125V13.0666V3.45721C35.3586 3.06221 35.6354 2.72025 36.0143 2.6376L36.0217 2.63594C42.6281 1.15944 49.7484 1.08373 56.6956 2.63598L56.7029 2.63758C57.0818 2.72025 57.3586 3.06221 57.3586 3.45721V13.0471V14.1115L58.3634 14.4629C62.5415 15.9244 66.4012 18.1539 69.7553 21.0396L70.5621 21.7337L71.4837 21.2015L79.804 16.3968L79.8097 16.3935C80.1216 16.2116 80.5638 16.2655 80.8429 16.565C85.5165 21.6365 89.0916 27.7271 91.1923 34.4579C91.3104 34.8692 91.1362 35.2691 90.8097 35.4556L90.8038 35.459L82.4835 40.2637L81.5656 40.7938L81.7587 41.836C82.5651 46.1866 82.5651 50.6497 81.7587 55.0003L81.5656 56.0425L82.4835 56.5726L90.8038 61.3773ZM0.109111 34.0433L0.108617 34.0432L0.109111 34.0433ZM29.2336 48.4182C29.2336 57.8599 36.9169 65.5432 46.3586 65.5432C55.8003 65.5432 63.4836 57.8599 63.4836 48.4182C63.4836 38.9764 55.8003 31.2932 46.3586 31.2932C36.9169 31.2932 29.2336 38.9764 29.2336 48.4182Z" fill="#686868" stroke="black" stroke-width="3"/>
</svg>
