<svg width="40" height="35" viewBox="0 0 40 35" fill="none" xmlns="http://www.w3.org/2000/svg">
<path d="M2 22.6667V26.3867C2 28.7013 2 29.8587 2.436 30.7432C2.81949 31.5209 3.43139 32.1532 4.184 32.5495C5.038 33 6.158 33 8.394 33H38M2 22.6667V2M2 22.6667L9.706 16.0327L9.714 16.0265C11.108 14.8257 11.806 14.2243 12.564 13.9805C13.4583 13.6915 14.4223 13.7361 15.288 14.1065C16.022 14.4227 16.664 15.0861 17.952 16.4171L17.964 16.4295C19.272 17.7811 19.926 18.4589 20.672 18.771C21.5549 19.1428 22.5372 19.1765 23.442 18.8661C24.208 18.6015 24.908 17.9691 26.308 16.7043L38 6.13333" stroke="white" stroke-width="3.33333" stroke-linecap="round" stroke-linejoin="round"/>
</svg>
